<?xml version="1.0" encoding="iso-8859-1"?>
<!-- Uploaded to: SVG Repo, www.svgrepo.com, Generator: SVG Repo Mixer Tools -->
<!DOCTYPE svg PUBLIC "-//W3C//DTD SVG 1.1//EN" "http://www.w3.org/Graphics/SVG/1.1/DTD/svg11.dtd">
<svg fill="#000000" height="800px" width="800px" version="1.1" id="Capa_1" xmlns="http://www.w3.org/2000/svg" xmlns:xlink="http://www.w3.org/1999/xlink" 
	 viewBox="0 0 197.602 197.602" xml:space="preserve">
<path d="M92.939,141.354l-54.783,54.783c-0.977,0.976-2.256,1.464-3.536,1.464s-2.559-0.488-3.536-1.464l-9.61-9.61l58.319-58.319
	L92.939,141.354z M109.872,57.694l27.634-27.634c0.017-0.017,0.039-0.029,0.056-0.046c0.195-0.189,0.407-0.362,0.632-0.518
	c0.039-0.027,0.076-0.057,0.116-0.083c0.192-0.126,0.392-0.242,0.602-0.342l49.679-23.387c0.147-0.069,0.299-0.116,0.449-0.17
	c0.093-0.033,0.184-0.078,0.279-0.105c0.18-0.053,0.363-0.083,0.546-0.115c0.068-0.012,0.135-0.034,0.204-0.043
	c1.456-0.191,2.945,0.274,4.053,1.306c0.043,0.04,0.092,0.072,0.134,0.114c0,0,0,0,0.001,0.001s0,0,0,0
	c0.091,0.091,0.164,0.192,0.246,0.288c0.087,0.102,0.183,0.198,0.261,0.305c0.048,0.066,0.083,0.138,0.127,0.206
	c0.097,0.147,0.196,0.293,0.276,0.448c0.004,0.007,0.005,0.015,0.009,0.022c0.688,1.352,0.74,2.974,0.07,4.398l-10.107,21.47
	c-0.001,0.001-0.001,0.002-0.002,0.004l-13.278,28.205c-0.095,0.203-0.206,0.395-0.326,0.581c-0.026,0.041-0.057,0.078-0.084,0.118
	c-0.16,0.233-0.337,0.451-0.532,0.652c-0.017,0.017-0.028,0.038-0.045,0.056l-27.634,27.634l-13.146-13.146l24.099-24.098
	l-7.071-7.071l-24.099,24.099L109.872,57.694z M149.607,35.09l16.233,16.233l8.753-18.593l-6.392-6.393L149.607,35.09z
	 M59.575,107.991L4.792,162.774c-1.953,1.953-1.953,5.119,0,7.071l9.61,9.61l58.319-58.319L59.575,107.991z M19.314,14.117
	L3.51,29.921c-1.05,1.05-1.628,2.446-1.628,3.931c0,1.485,0.578,2.881,1.628,3.931l153.042,153.042
	c1.05,1.05,2.446,1.628,3.931,1.628c1.485,0,2.881-0.579,3.931-1.628l15.804-15.804L19.314,14.117z M192.705,154.67L39.664,1.629
	C38.614,0.579,37.218,0,35.733,0c-1.485,0-2.881,0.579-3.931,1.628l-5.417,5.417l160.904,160.904l5.417-5.417
	C194.873,160.365,194.873,156.837,192.705,154.67z"/>
</svg>