<?xml version="1.0" encoding="UTF-8"?>
<!DOCTYPE svg PUBLIC "-//W3C//DTD SVG 1.1//EN" "http://www.w3.org/Graphics/SVG/1.1/DTD/svg11.dtd">
<!-- Creator: CorelDRAW -->
<svg xmlns="http://www.w3.org/2000/svg" xml:space="preserve" width="6.82666in" height="6.82666in" style="shape-rendering:geometricPrecision; text-rendering:geometricPrecision; image-rendering:optimizeQuality; fill-rule:evenodd; clip-rule:evenodd"
viewBox="0 0 6.82666 6.82666"
 xmlns:xlink="http://www.w3.org/1999/xlink">
 <defs>
  <style type="text/css">
   <![CDATA[
    .fil0 {fill:none}
    .fil1 {fill:#515151}
    .fil3 {fill:#616161}
    .fil6 {fill:#757575}
    .fil2 {fill:gray}
    .fil4 {fill:#AAAAAA}
    .fil5 {fill:#757575;fill-rule:nonzero}
   ]]>
  </style>
 </defs>
 <g id="Layer_x0020_1">
  <metadata id="CorelCorpID_0Corel-Layer"/>
  <g id="_494680256">
   <rect id="_494680544" class="fil0" width="6.82666" height="6.82666"/>
   <rect id="_494680280" class="fil0" x="0.853331" y="0.853331" width="5.12" height="5.12"/>
  </g>
  <g id="_494679104">
   <rect id="_494680232" class="fil1" transform="matrix(3.15382 1.25448 -0.58268 1.46489 4.80737 1.56082)" width="0.0289803" height="0.6275"/>
   <rect id="_494680424" class="fil2" transform="matrix(1.46489 0.58268 -0.58268 1.46489 4.96931 0.827624)" width="0.215276" height="0.470106"/>
   <g>
    <polygon id="_494679368" class="fil2" points="4.29678,2.36989 4.20268,2.15148 2.58989,4.69147 2.51505,5.23351 "/>
    <polygon id="_494679320" class="fil2" points="4.71414,2.5359 4.93255,2.4418 4.36009,5.39559 4.04219,5.84096 "/>
   </g>
   <path id="_494679584" class="fil3" d="M4.86197 1.55659c0.281236,0.111862 0.418543,0.430543 0.306677,0.711776 -0.111866,0.281236 -0.430543,0.418543 -0.71178,0.306677 -0.281236,-0.111866 -0.418539,-0.430543 -0.306673,-0.71178 0.111862,-0.281236 0.430543,-0.418539 0.711776,-0.306673zm-0.0782362 0.196693c0.17261,0.0686575 0.256878,0.26424 0.18822,0.436846 -0.0686575,0.17261 -0.26424,0.256878 -0.43685,0.18822 -0.172606,-0.0686575 -0.256878,-0.26424 -0.188217,-0.43685 0.0686575,-0.172606 0.26424,-0.256878 0.436846,-0.188217z"/>
   <rect id="_494679536" class="fil1" transform="matrix(1.46489 0.58268 -0.58268 1.46489 2.91194 3.5176)" width="1.3792" height="0.0362953"/>
   <path id="_494679152" class="fil1" d="M4.55997 2.31585c0.0846378,0.0336654 0.125961,0.129571 0.0922953,0.214213 -0.0336693,0.0846378 -0.129575,0.125961 -0.214213,0.0922953 -0.0846417,-0.0336693 -0.125965,-0.129575 -0.0922953,-0.214213 0.0336654,-0.0846417 0.129571,-0.125965 0.214213,-0.0922953z"/>
   <path id="_494679056" class="fil4" d="M4.52546 2.40259c0.0367283,0.0146102 0.0546614,0.0562323 0.0400512,0.0929646 -0.0146102,0.0367283 -0.0562323,0.0546614 -0.0929606,0.0400512 -0.0367323,-0.0146102 -0.0546654,-0.0562323 -0.0400551,-0.0929606 0.0146102,-0.0367323 0.0562323,-0.0546654 0.0929646,-0.0400551z"/>
   <rect id="_494678696" class="fil1" transform="matrix(1.46489 0.58268 -0.58268 1.46489 4.16778 3.82212)" width="0.0887244" height="0.266169"/>
  </g>
  <path class="fil5" d="M3.40252 5.66627l0.145579 -0.306957 0.0456969 -0.0963543 0.0959724 0.0455197 0.306961 0.145583 0.0963504 0.0456969 -0.0455157 0.0959724 -0.145583 0.306957 -0.0457008 0.0963504 -0.0959685 -0.0455157 -0.306957 -0.145583 -0.0963504 -0.0457008 0.0455157 -0.0959685zm0.292386 -0.119772l-0.0543661 0.114634 0.114634 0.0543701 0.0543701 -0.114634 -0.114638 -0.0543701z"/>
  <path class="fil5" d="M2.58409 2.81853l0.145583 -0.306957 0.0457008 -0.0963504 0.0959685 0.0455157 0.306957 0.145583 0.0963543 0.0457008 -0.0455197 0.0959685 -0.145583 0.306957 -0.0456969 0.0963543 -0.0959724 -0.0455197 -0.306957 -0.145583 -0.0963504 -0.0456969 0.0455157 -0.0959724zm0.29239 -0.119772l-0.0543701 0.114634 0.114634 0.0543701 0.0543701 -0.114634 -0.114634 -0.0543701z"/>
  <path class="fil6" d="M3.55693 5.58806c-0.351138,0.0617953 -0.732606,0.101972 -1.06552,-0.0559252 -0.327646,-0.155394 -0.580201,-0.428476 -0.709563,-0.766209l-0.00279528 0.000972441 -0.0219764 -0.062752 0.00244488 -0.000862205c-0.11339,-0.343339 -0.0906535,-0.715449 0.0647008,-1.04301 0.160122,-0.337618 0.445201,-0.59552 0.797228,-0.721024 0.0171417,-0.00611417 0.0343976,-0.0119055 0.0517638,-0.0173504 0.00677559,-0.00212205 0.0135787,-0.00417323 0.0203976,-0.00616929l-0.0383425 -0.14135c-0.00850394,0.00253937 -0.0169843,0.00514961 -0.0254488,0.00779921 -0.019063,0.00597638 -0.0380157,0.0123189 -0.0568346,0.0190276 -0.389091,0.138717 -0.704055,0.423638 -0.881039,0.796799 -0.176654,0.372469 -0.198094,0.796992 -0.0596102,1.18535 0.13874,0.389079 0.423638,0.704067 0.796807,0.881051 0.362449,0.171898 0.774197,0.196835 1.15394,0.070437l-0.0261457 -0.0741299 -3.93701e-006 -0.0726575z"/>
 </g>
</svg>
